<?xml version="1.0" encoding="utf-8"?>
<!-- Generator: Adobe Illustrator 21.1.0, SVG Export Plug-In . SVG Version: 6.00 Build 0)  -->
<svg version="1.1" id="Icon_Set" xmlns="http://www.w3.org/2000/svg" xmlns:xlink="http://www.w3.org/1999/xlink" x="0px" y="0px"
	 viewBox="0 0 64 64" style="enable-background:new 0 0 64 64;" xml:space="preserve">
<style type="text/css">
	.st0{fill:none;stroke:#263238;stroke-linecap:round;stroke-linejoin:round;stroke-miterlimit:10;}
	.st1{fill:#263238;}
	.st2{fill:none;}
</style>
<g id="Digital_Camera">
	<g>
		<g>
			<path class="st0" d="M1,22.5v-2c0-5.5,4.5-10,10-10h2"/>
			<line class="st0" x1="15" y1="10.5" x2="16" y2="10.5"/>
		</g>
		<g>
			<path class="st0" d="M63,46.5v2c0,5.5-4.5,10-10,10h-2"/>
			<line class="st0" x1="49" y1="58.5" x2="48" y2="58.5"/>
		</g>
		<path class="st0" d="M53,8.5l1.2-0.4c0.6-0.2,1.1-0.7,1.3-1.3L56,5.5l0.4,1.2c0.2,0.6,0.7,1.1,1.3,1.3L59,8.5l-1.2,0.4
			c-0.6,0.2-1.1,0.7-1.3,1.3L56,11.5l-0.4-1.2c-0.2-0.6-0.7-1.1-1.3-1.3L53,8.5z"/>
		<g>
			<path class="st0" d="M51,50.5H13c-2.8,0-5-2.2-5-5v-22c0-2.8,2.2-5,5-5h38c2.8,0,5,2.2,5,5v22C56,48.3,53.8,50.5,51,50.5z"/>
			<path class="st0" d="M21.5,28.5H8v17c0,2.8,2.2,5,5,5h38c2.8,0,5-2.2,5-5v-17H42.5"/>
			<path class="st0" d="M22.5,16.5l1.8-2.8c0.5-0.7,1.3-1.2,2.1-1.2h11.2c0.9,0,1.7,0.4,2.1,1.2l1.8,2.8"/>
			<circle class="st0" cx="32" cy="34.5" r="10"/>
			<circle class="st0" cx="32" cy="34.5" r="7"/>
			<path class="st0" d="M32,30.5c2.2,0,4,1.8,4,4"/>
			<path class="st0" d="M51,25h-2.5c-0.6,0-1-0.4-1-1v-1c0-0.6,0.4-1,1-1H51c0.6,0,1,0.4,1,1v1C52,24.6,51.6,25,51,25z"/>
			<line class="st0" x1="29" y1="15.5" x2="35" y2="15.5"/>
			<line class="st0" x1="15.5" y1="16.5" x2="19.5" y2="16.5"/>
			<line class="st0" x1="53" y1="31.5" x2="53" y2="45.5"/>
		</g>
	</g>
</g>
</svg>
