<?xml version="1.0" encoding="utf-8"?>
<!-- Generator: Adobe Illustrator 21.1.0, SVG Export Plug-In . SVG Version: 6.00 Build 0)  -->
<svg version="1.1" id="Icon_Set" xmlns="http://www.w3.org/2000/svg" xmlns:xlink="http://www.w3.org/1999/xlink" x="0px" y="0px"
	 viewBox="0 0 64 64" style="enable-background:new 0 0 64 64;" xml:space="preserve">
<style type="text/css">
	.st0{fill:#263238;}
</style>
<g id="Zero_Emission">
	<g>
		<g>
			<g>
				<g>
					<path class="st0" d="M43.2,32.9h-4.6c-0.3,0-0.5-0.2-0.5-0.5s0.2-0.5,0.5-0.5h4.6c3.9,0,7-3.1,7-7s-3.1-7-7-7H41
						c-0.3,0-0.5-0.2-0.5-0.5c0-4.7-3.8-8.5-8.5-8.5s-8.5,3.8-8.5,8.5c0,0.3-0.2,0.5-0.5,0.5h-2.2c-3.9,0-7,3.1-7,7s3.1,7,7,7h4.6
						c0.3,0,0.5,0.2,0.5,0.5s-0.2,0.5-0.5,0.5h-4.6c-4.4,0-8-3.6-8-8s3.6-8,8-8h1.8c0.3-5,4.4-9,9.5-9s9.2,4,9.5,9h1.8
						c4.4,0,8,3.6,8,8S47.7,32.9,43.2,32.9z"/>
				</g>
			</g>
		</g>
		<g>
			<g>
				<g>
					<g>
						<path class="st0" d="M38,17.9c-0.3,0-0.5-0.2-0.5-0.5c0-3-2.5-5.5-5.5-5.5c-0.3,0-0.5-0.2-0.5-0.5s0.2-0.5,0.5-0.5
							c3.6,0,6.5,2.9,6.5,6.5C38.5,17.7,38.3,17.9,38,17.9z"/>
					</g>
				</g>
			</g>
		</g>
		<g>
			<g>
				<g>
					<g>
						<g>
							<path class="st0" d="M41.7,56.1c-4,0-7.4-1.6-7.6-1.7c-0.2-0.1-0.3-0.4-0.3-0.6c0.1-0.3,2.5-6.9,8-9.2
								c5.5-2.3,12,0.7,12.2,0.9c0.2,0.1,0.3,0.4,0.3,0.6c-0.1,0.3-2.5,6.9-8,9.2l0,0C44.8,55.9,43.2,56.1,41.7,56.1z M35,53.7
								c1.5,0.6,6.6,2.4,11,0.6l0,0c4.4-1.8,6.7-6.7,7.3-8.2c-1.5-0.6-6.6-2.4-11-0.6C37.9,47.3,35.6,52.2,35,53.7z M46.1,54.8
								L46.1,54.8L46.1,54.8z"/>
						</g>
					</g>
				</g>
				<g>
					<g>
						<g>
							<path class="st0" d="M32,61.5c-0.3,0-0.5-0.2-0.5-0.5c0-7,5.7-12.6,12.6-12.6c0.3,0,0.5,0.2,0.5,0.5s-0.2,0.5-0.5,0.5
								c-6.4,0-11.6,5.2-11.6,11.6C32.5,61.3,32.3,61.5,32,61.5z"/>
						</g>
					</g>
				</g>
			</g>
			<g>
				<g>
					<g>
						<g>
							<path class="st0" d="M22.3,56.1c-1.5,0-3.1-0.2-4.6-0.9l0,0c-5.5-2.3-7.9-9-8-9.2c-0.1-0.2,0-0.5,0.3-0.6
								c0.3-0.1,6.7-3.2,12.2-0.9c5.5,2.3,7.9,9,8,9.2c0.1,0.2,0,0.5-0.3,0.6C29.7,54.5,26.3,56.1,22.3,56.1z M18.1,54.3
								c4.4,1.8,9.5,0,11-0.6c-0.6-1.5-3-6.4-7.3-8.2c-4.4-1.8-9.5,0-11,0.6C11.4,47.6,13.7,52.5,18.1,54.3L18.1,54.3z"/>
						</g>
					</g>
				</g>
				<g>
					<g>
						<g>
							<path class="st0" d="M32,61.5c-0.3,0-0.5-0.2-0.5-0.5c0-6.4-5.2-11.6-11.6-11.6c-0.3,0-0.5-0.2-0.5-0.5s0.2-0.5,0.5-0.5
								c7,0,12.6,5.7,12.6,12.6C32.5,61.3,32.3,61.5,32,61.5z"/>
						</g>
					</g>
				</g>
			</g>
			<g>
				<g>
					<g>
						<path class="st0" d="M32,49.1c-0.1,0-0.2,0-0.3-0.1c-0.2-0.2-5.5-5-5.5-11s5.2-10.8,5.5-11c0.2-0.2,0.5-0.2,0.7,0
							c0.2,0.2,5.5,5,5.5,11s-5.2,10.8-5.5,11C32.2,49,32.1,49.1,32,49.1z M32,28.1c-1.1,1.1-4.8,5.2-4.8,9.9s3.7,8.8,4.8,9.9
							c1.1-1.1,4.8-5.2,4.8-9.9C36.8,33.3,33.1,29.2,32,28.1z"/>
					</g>
				</g>
			</g>
			<g>
				<g>
					<g>
						<path class="st0" d="M32,61.5c-0.3,0-0.5-0.2-0.5-0.5V38c0-0.3,0.2-0.5,0.5-0.5s0.5,0.2,0.5,0.5v23
							C32.5,61.3,32.3,61.5,32,61.5z"/>
					</g>
				</g>
			</g>
		</g>
		<g>
			<g>
				<g>
					<path class="st0" d="M47.8,9.5c-0.2,0-0.4-0.1-0.5-0.3l-0.4-1.2c-0.2-0.5-0.5-0.9-1-1l-1.2-0.4c-0.2-0.1-0.3-0.3-0.3-0.5
						s0.1-0.4,0.3-0.5l1.2-0.4c0.5-0.2,0.9-0.5,1-1l0.4-1.2c0.1-0.4,0.8-0.4,0.9,0l0.4,1.2c0.2,0.5,0.5,0.9,1,1l1.2,0.4
						c0.2,0.1,0.3,0.3,0.3,0.5s-0.1,0.4-0.3,0.5l-1.2,0.4c-0.5,0.2-0.9,0.5-1,1l-0.4,1.2C48.2,9.4,48,9.5,47.8,9.5z M46.3,6
						c0.7,0.3,1.2,0.8,1.4,1.4C48,6.8,48.5,6.3,49.2,6c-0.7-0.3-1.2-0.8-1.4-1.4C47.5,5.2,47,5.7,46.3,6z"/>
				</g>
			</g>
		</g>
		<g>
			<g>
				<g>
					<g>
						<g>
							<path class="st0" d="M60.2,37h-1c-0.3,0-0.5-0.2-0.5-0.5S59,36,59.2,36h1c0.3,0,0.5,0.2,0.5,0.5S60.5,37,60.2,37z"/>
						</g>
					</g>
				</g>
				<g>
					<g>
						<g>
							<path class="st0" d="M57.2,37h-8c-0.3,0-0.5-0.2-0.5-0.5S49,36,49.2,36h8c0.3,0,0.5,0.2,0.5,0.5S57.5,37,57.2,37z"/>
						</g>
					</g>
				</g>
			</g>
			<g>
				<g>
					<g>
						<g>
							<path class="st0" d="M43.2,39h-1c-0.3,0-0.5-0.2-0.5-0.5S42,38,42.2,38h1c0.3,0,0.5,0.2,0.5,0.5S43.5,39,43.2,39z"/>
						</g>
					</g>
				</g>
				<g>
					<g>
						<g>
							<path class="st0" d="M53.2,39h-8c-0.3,0-0.5-0.2-0.5-0.5S45,38,45.2,38h8c0.3,0,0.5,0.2,0.5,0.5S53.5,39,53.2,39z"/>
						</g>
					</g>
				</g>
			</g>
		</g>
		<g>
			<g>
				<g>
					<g>
						<g>
							<path class="st0" d="M4.2,37h-1c-0.3,0-0.5-0.2-0.5-0.5S3,36,3.2,36h1c0.3,0,0.5,0.2,0.5,0.5S4.5,37,4.2,37z"/>
						</g>
					</g>
				</g>
				<g>
					<g>
						<g>
							<path class="st0" d="M14.2,37h-8c-0.3,0-0.5-0.2-0.5-0.5S6,36,6.2,36h8c0.3,0,0.5,0.2,0.5,0.5S14.5,37,14.2,37z"/>
						</g>
					</g>
				</g>
			</g>
			<g>
				<g>
					<g>
						<g>
							<path class="st0" d="M21.2,39h-1c-0.3,0-0.5-0.2-0.5-0.5S20,38,20.2,38h1c0.3,0,0.5,0.2,0.5,0.5S21.5,39,21.2,39z"/>
						</g>
					</g>
				</g>
				<g>
					<g>
						<g>
							<path class="st0" d="M18.2,39h-8c-0.3,0-0.5-0.2-0.5-0.5S10,38,10.2,38h8c0.3,0,0.5,0.2,0.5,0.5S18.5,39,18.2,39z"/>
						</g>
					</g>
				</g>
			</g>
		</g>
		<g>
			<g>
				<g>
					<path class="st0" d="M6.8,23.9h-4c-1.4,0-2.5-1.1-2.5-2.5c0-1.2,0.9-2.2,2-2.5c0.2-1.2,1.2-2,2.5-2s2.2,0.9,2.5,2
						c1.2,0.2,2,1.2,2,2.5C9.2,22.8,8.1,23.9,6.8,23.9z M4.8,17.9c-0.8,0-1.5,0.7-1.5,1.5c0,0.3-0.2,0.5-0.5,0.5
						c-0.8,0-1.5,0.7-1.5,1.5s0.7,1.5,1.5,1.5h4c0.8,0,1.5-0.7,1.5-1.5s-0.7-1.5-1.5-1.5c-0.3,0-0.5-0.2-0.5-0.5
						C6.2,18.6,5.6,17.9,4.8,17.9z M7.2,19.4L7.2,19.4L7.2,19.4z"/>
				</g>
			</g>
		</g>
		<g>
			<g>
				<g>
					<path class="st0" d="M61.2,23.9h-4c-1.4,0-2.5-1.1-2.5-2.5c0-1.2,0.9-2.2,2-2.5c0.2-1.2,1.2-2,2.5-2s2.2,0.9,2.5,2
						c1.2,0.2,2,1.2,2,2.5C63.8,22.8,62.6,23.9,61.2,23.9z M59.2,17.9c-0.8,0-1.5,0.7-1.5,1.5c0,0.3-0.2,0.5-0.5,0.5
						c-0.8,0-1.5,0.7-1.5,1.5s0.7,1.5,1.5,1.5h4c0.8,0,1.5-0.7,1.5-1.5s-0.7-1.5-1.5-1.5c-0.3,0-0.5-0.2-0.5-0.5
						C60.8,18.6,60.1,17.9,59.2,17.9z M61.8,19.4L61.8,19.4L61.8,19.4z"/>
				</g>
			</g>
		</g>
	</g>
</g>
</svg>
